<svg xmlns="http://www.w3.org/2000/svg" xmlns:xlink="http://www.w3.org/1999/xlink" width="500" zoomAndPan="magnify" viewBox="0 0 375 374.999991" height="500" preserveAspectRatio="xMidYMid meet" version="1.0"><defs><clipPath id="c3fd273256"><path d="M 187.5 0 C 83.945312 0 0 83.945312 0 187.5 C 0 291.054688 83.945312 375 187.5 375 C 291.054688 375 375 291.054688 375 187.5 C 375 83.945312 291.054688 0 187.5 0 Z M 187.5 0 " clip-rule="nonzero"/></clipPath><clipPath id="92aca75af8"><path d="M 32 37.5 L 340 37.5 L 340 146 L 32 146 Z M 32 37.5 " clip-rule="nonzero"/></clipPath></defs><g clip-path="url(#c3fd273256)"><rect x="-37.5" width="450" fill="#d7b9d6" y="-37.499999" height="449.999989" fill-opacity="1"/></g><path fill="#7c449a" d="M 186.132812 220.527344 C 183.382812 224.613281 179.09375 223.589844 173.261719 217.460938 C 173.550781 212.65625 176.277344 206.460938 181.433594 198.871094 C 174.683594 198.261719 170.050781 197.375 167.542969 196.21875 C 183.816406 198.464844 192.734375 195.878906 194.300781 188.457031 C 201.304688 187.8125 204.914062 188.152344 205.128906 189.476562 L 186.742188 216.441406 C 186.441406 217.109375 186.917969 217.859375 188.171875 218.6875 Z M 207.988281 221.957031 C 201.527344 222.226562 198.664062 221.207031 199.410156 218.890625 L 202.882812 218.890625 C 221.617188 193.816406 230.46875 179.652344 229.4375 176.402344 C 222.214844 170.695312 210.503906 168.242188 194.300781 169.050781 C 197.3125 166.457031 199.425781 161.351562 200.632812 153.730469 C 202.191406 157.339844 204.097656 159.175781 206.355469 159.246094 C 208.347656 161.503906 211.597656 162.171875 214.320312 160.878906 L 232.910156 164.148438 L 235.972656 165.371094 L 234.339844 166.597656 L 235.15625 203.980469 C 223.6875 223.847656 214.699219 231.472656 208.191406 226.859375 C 210.722656 224.8125 210.652344 223.175781 207.988281 221.957031 Z M 251.089844 233.597656 C 251.089844 227.167969 256.300781 221.957031 262.730469 221.957031 C 269.164062 221.957031 274.375 227.167969 274.375 233.597656 C 274.375 240.027344 269.164062 245.242188 262.730469 245.242188 C 256.300781 245.242188 251.089844 240.027344 251.089844 233.597656 Z M 162.4375 206.636719 C 153.058594 196.21875 138.390625 192.378906 125.113281 196.863281 C 111.835938 201.347656 102.5 213.300781 101.359375 227.265625 C 116.984375 232.15625 135.167969 235.898438 155.898438 238.5 L 148.136719 238.296875 C 145.890625 242.625 141.210938 245.117188 136.367188 244.574219 C 131.523438 244.03125 127.511719 240.5625 126.28125 235.847656 C 123.402344 235.917969 118.703125 235.375 112.1875 234.210938 C 112.664062 247.816406 123.5 258.78125 137.101562 259.421875 C 150.703125 260.0625 162.519531 250.164062 164.273438 236.664062 C 166.09375 236.984375 167.25 238.007812 167.746094 239.726562 L 229.84375 239.929688 L 231.480469 234.824219 C 233.628906 235.488281 237.785156 233.582031 243.9375 229.105469 L 236.996094 236.664062 C 238.457031 246.96875 245.871094 255.441406 255.890625 258.253906 C 265.914062 261.070312 276.652344 257.695312 283.265625 249.65625 C 289.878906 241.617188 291.121094 230.429688 286.425781 221.136719 L 267.429688 219.914062 L 289.082031 217.257812 C 281.78125 200.261719 269.253906 194.132812 251.496094 198.871094 L 245.980469 178.648438 L 248.636719 180.082031 C 252.582031 174.613281 253.359375 167.472656 250.679688 161.289062 C 245.613281 161.902344 243.160156 165.03125 243.328125 170.683594 L 241.898438 158.835938 C 238.691406 155.703125 235.628906 155.839844 232.703125 159.246094 L 218.609375 153.320312 C 219.066406 150.945312 216.988281 149.71875 212.378906 149.644531 C 210.792969 149.789062 209.808594 149.109375 209.417969 147.601562 C 209.285156 140.902344 206.902344 133.753906 202.269531 126.152344 C 202.535156 126.445312 204.136719 124.746094 207.070312 121.046875 C 208.242188 122.574219 210.625 123.015625 214.21875 122.375 C 216.8125 117.203125 219.09375 114.375 221.0625 113.898438 L 221.265625 105.929688 L 230.660156 102.664062 L 215.546875 104.707031 L 209.621094 108.789062 L 214.523438 101.027344 L 224.738281 100.210938 C 223.132812 92.414062 216.582031 86.601562 208.648438 85.941406 C 200.714844 85.28125 193.292969 89.925781 190.421875 97.351562 C 186.507812 107.25 188.925781 114.398438 197.671875 118.800781 L 195.628906 121.964844 L 192.464844 120.230469 L 191.441406 124.316406 C 176.730469 133.289062 168.761719 151.671875 167.542969 179.46875 C 168.015625 181.246094 169.71875 183.085938 172.648438 184.984375 C 165.566406 185.804688 151.605469 185.398438 130.773438 183.757812 C 129.496094 186.511719 129.703125 189.507812 131.386719 192.746094 C 143.53125 191.128906 155.546875 196.503906 162.4375 206.636719 Z M 162.4375 206.636719 " fill-opacity="1" fill-rule="evenodd"/><path fill="#7c449a" d="M 103.277344 136.890625 L 122.3125 136.890625 L 127.277344 160.890625 L 126.5625 136.890625 L 139.6875 136.890625 L 139.277344 156.140625 L 143.0625 136.890625 L 160.316406 136.890625 C 165.40625 136.890625 170.308594 141.109375 169.566406 146.140625 L 164.949219 177.390625 C 164.207031 182.425781 160.785156 186.640625 155.699219 186.640625 L 109.777344 186.640625 C 104.691406 186.640625 101.5625 182.371094 100.527344 177.390625 L 94.027344 146.140625 C 92.992188 141.160156 98.191406 136.890625 103.277344 136.890625 Z M 103.277344 136.890625 " fill-opacity="1" fill-rule="evenodd"/><path fill="#7c449a" d="M 356.410156 180.726562 C 355.945312 187.566406 350.71875 196.328125 340.734375 207.011719 L 340.679688 207.070312 L 340.625 207.011719 C 330.640625 196.328125 325.414062 187.566406 324.949219 180.726562 C 323.195312 155.941406 358.164062 155.941406 356.410156 180.726562 Z M 340.484375 187.183594 C 345 187.183594 348.664062 183.523438 348.664062 179.003906 C 348.664062 174.488281 345 170.824219 340.484375 170.824219 C 335.964844 170.824219 332.304688 174.488281 332.304688 179.003906 C 332.304688 183.523438 335.964844 187.183594 340.484375 187.183594 Z M 340.484375 187.183594 " fill-opacity="1" fill-rule="evenodd"/><path fill="#7c449a" d="M 50.054688 180.726562 C 49.589844 187.566406 44.363281 196.328125 34.378906 207.011719 L 34.324219 207.070312 L 34.269531 207.011719 C 24.285156 196.328125 19.058594 187.566406 18.59375 180.726562 C 16.839844 155.941406 51.808594 155.941406 50.054688 180.726562 Z M 34.128906 187.183594 C 38.644531 187.183594 42.304688 183.523438 42.304688 179.003906 C 42.304688 174.488281 38.644531 170.824219 34.128906 170.824219 C 29.609375 170.824219 25.949219 174.488281 25.949219 179.003906 C 25.949219 183.523438 29.609375 187.183594 34.128906 187.183594 Z M 34.128906 187.183594 " fill-opacity="1" fill-rule="evenodd"/><g clip-path="url(#92aca75af8)"><path fill="#7c449a" d="M 39.546875 128.957031 L 39.214844 129.621094 L 38.863281 130.332031 L 38.515625 131.050781 L 38.167969 131.765625 L 37.828125 132.484375 L 37.488281 133.207031 L 37.152344 133.929688 L 36.820312 134.65625 L 36.492188 135.386719 L 36.164062 136.113281 L 35.523438 137.582031 L 35.207031 138.316406 L 34.894531 139.054688 L 34.277344 140.539062 L 33.976562 141.28125 L 33.675781 142.03125 L 33.378906 142.777344 L 33.085938 143.527344 L 32.796875 144.28125 L 35.898438 145.464844 L 36.183594 144.726562 L 36.46875 143.992188 L 36.757812 143.257812 L 37.054688 142.527344 L 37.347656 141.796875 L 37.648438 141.070312 L 37.953125 140.34375 L 38.257812 139.621094 L 38.570312 138.898438 L 38.882812 138.179688 L 39.199219 137.460938 L 39.839844 136.03125 L 40.164062 135.320312 L 40.496094 134.613281 L 40.828125 133.902344 L 41.5 132.496094 L 42.1875 131.097656 L 42.519531 130.429688 Z M 339.773438 136.746094 L 339.496094 136.113281 L 339.171875 135.386719 L 338.84375 134.65625 L 338.507812 133.929688 L 337.835938 132.484375 L 337.492188 131.765625 L 337.148438 131.050781 L 336.796875 130.332031 L 336.09375 128.910156 L 335.734375 128.199219 L 335.371094 127.496094 L 335.007812 126.789062 L 334.640625 126.085938 L 334.269531 125.386719 L 333.894531 124.691406 L 333.519531 123.992188 L 333.140625 123.300781 L 332.753906 122.609375 L 332.371094 121.917969 L 332.28125 121.761719 L 329.394531 123.40625 L 329.476562 123.550781 L 329.855469 124.222656 L 330.605469 125.582031 L 330.972656 126.261719 L 331.339844 126.949219 L 331.703125 127.632812 L 332.0625 128.320312 L 332.421875 129.011719 L 332.773438 129.703125 L 333.125 130.398438 L 333.820312 131.796875 L 334.160156 132.496094 L 334.5 133.199219 L 334.835938 133.902344 L 335.167969 134.613281 L 335.496094 135.320312 L 335.820312 136.03125 L 336.144531 136.746094 L 336.464844 137.460938 L 336.742188 138.089844 Z M 327.074219 113.167969 L 326.644531 112.507812 L 326.214844 111.855469 L 325.777344 111.203125 L 325.34375 110.550781 L 324.902344 109.902344 L 324.460938 109.257812 L 324.015625 108.613281 L 323.566406 107.972656 L 322.660156 106.699219 L 322.203125 106.066406 L 321.742188 105.433594 L 321.28125 104.804688 L 320.816406 104.179688 L 320.347656 103.554688 L 319.402344 102.3125 L 318.925781 101.699219 L 318.449219 101.082031 L 317.480469 99.863281 L 317.257812 99.585938 L 314.675781 101.667969 L 314.886719 101.933594 L 315.363281 102.53125 L 315.835938 103.128906 L 316.304688 103.734375 L 316.773438 104.335938 L 317.234375 104.945312 L 317.699219 105.550781 L 318.613281 106.777344 L 319.066406 107.394531 L 319.515625 108.011719 L 319.964844 108.632812 L 320.410156 109.257812 L 320.851562 109.882812 L 321.726562 111.140625 L 322.160156 111.773438 L 322.59375 112.410156 L 323.445312 113.683594 L 324.289062 114.972656 Z M 310.726562 91.9375 L 310.417969 91.597656 L 309.894531 91.023438 L 308.839844 89.890625 L 308.308594 89.324219 L 307.238281 88.207031 L 306.699219 87.652344 L 306.15625 87.097656 L 305.613281 86.546875 L 305.066406 86 L 304.515625 85.453125 L 303.964844 84.914062 L 303.410156 84.371094 L 302.855469 83.835938 L 302.296875 83.300781 L 301.734375 82.769531 L 301.171875 82.242188 L 300.605469 81.714844 L 300.039062 81.191406 L 299.46875 80.667969 L 298.894531 80.152344 L 298.855469 80.113281 L 296.644531 82.589844 L 296.675781 82.617188 L 297.238281 83.125 L 297.796875 83.636719 L 298.351562 84.148438 L 298.90625 84.664062 L 300.007812 85.703125 L 300.554688 86.226562 L 301.101562 86.753906 L 301.644531 87.285156 L 302.722656 88.347656 L 303.257812 88.886719 L 303.789062 89.425781 L 304.320312 89.96875 L 304.847656 90.511719 L 305.375 91.058594 L 305.898438 91.609375 L 306.417969 92.160156 L 306.9375 92.714844 L 307.96875 93.832031 L 308.277344 94.175781 L 310.730469 91.9375 Z M 291.179688 73.617188 L 290.636719 73.1875 L 290.03125 72.710938 L 289.421875 72.238281 L 288.8125 71.769531 L 288.199219 71.300781 L 287.582031 70.835938 L 286.347656 69.914062 L 285.726562 69.457031 L 285.101562 69.003906 L 284.476562 68.554688 L 283.847656 68.105469 L 283.21875 67.660156 L 282.585938 67.21875 L 281.953125 66.78125 L 280.679688 65.914062 L 279.398438 65.054688 L 278.109375 64.210938 L 277.566406 63.863281 L 275.773438 66.65625 L 276.300781 66.996094 L 276.933594 67.40625 L 277.566406 67.824219 L 278.195312 68.242188 L 278.820312 68.664062 L 279.449219 69.085938 L 280.691406 69.945312 L 281.3125 70.378906 L 281.929688 70.8125 L 282.542969 71.25 L 283.15625 71.691406 L 283.769531 72.136719 L 284.375 72.585938 L 284.984375 73.035156 L 285.589844 73.488281 L 286.191406 73.941406 L 286.792969 74.402344 L 287.390625 74.863281 L 287.988281 75.328125 L 288.582031 75.792969 L 289.125 76.222656 Z M 268.949219 58.683594 L 268.863281 58.636719 L 268.191406 58.257812 L 267.515625 57.886719 L 266.15625 57.152344 L 265.476562 56.789062 L 264.792969 56.429688 L 264.105469 56.074219 L 263.421875 55.71875 L 262.734375 55.367188 L 262.042969 55.019531 L 261.351562 54.675781 L 260.65625 54.335938 L 259.265625 53.664062 L 258.566406 53.332031 L 257.867188 53.003906 L 257.164062 52.679688 L 255.757812 52.039062 L 255.050781 51.722656 L 254.34375 51.414062 L 253.941406 51.238281 L 252.625 54.285156 L 253.011719 54.453125 L 253.707031 54.757812 L 254.398438 55.066406 L 255.089844 55.378906 L 256.464844 56.011719 L 257.152344 56.335938 L 257.835938 56.660156 L 258.519531 56.988281 L 259.199219 57.316406 L 260.558594 57.988281 L 261.234375 58.328125 L 261.910156 58.671875 L 263.253906 59.367188 L 264.589844 60.078125 L 265.917969 60.796875 L 266.582031 61.164062 L 267.242188 61.53125 L 267.328125 61.578125 Z M 244.601562 47.511719 L 244.265625 47.386719 L 243.535156 47.125 L 242.800781 46.867188 L 242.070312 46.609375 L 241.332031 46.359375 L 240.597656 46.109375 L 239.859375 45.863281 L 239.121094 45.621094 L 238.378906 45.382812 L 236.894531 44.914062 L 235.402344 44.460938 L 234.65625 44.238281 L 233.90625 44.019531 L 233.15625 43.804688 L 232.40625 43.59375 L 231.652344 43.386719 L 230.144531 42.980469 L 229.390625 42.785156 L 228.632812 42.589844 L 228.585938 42.578125 L 227.785156 45.800781 L 227.816406 45.808594 L 228.558594 45.996094 L 229.300781 46.191406 L 230.039062 46.386719 L 230.777344 46.585938 L 231.515625 46.792969 L 232.25 47 L 233.71875 47.421875 L 234.453125 47.640625 L 235.183594 47.859375 L 235.914062 48.085938 L 236.640625 48.3125 L 237.367188 48.542969 L 238.09375 48.777344 L 238.816406 49.015625 L 239.542969 49.253906 L 240.261719 49.5 L 240.984375 49.746094 L 241.703125 49.996094 L 242.421875 50.25 L 243.136719 50.507812 L 243.472656 50.632812 Z M 218.773438 40.40625 L 218.679688 40.390625 L 217.90625 40.246094 L 217.132812 40.105469 L 216.355469 39.96875 L 214.800781 39.703125 L 214.023438 39.578125 L 213.242188 39.457031 L 212.464844 39.335938 L 211.683594 39.222656 L 210.898438 39.109375 L 210.117188 39.003906 L 209.332031 38.898438 L 208.546875 38.796875 L 207.757812 38.699219 L 206.972656 38.609375 L 206.183594 38.519531 L 205.394531 38.433594 L 204.605469 38.351562 L 203.8125 38.273438 L 203.023438 38.199219 L 202.230469 38.128906 L 202.171875 38.121094 L 201.902344 41.429688 L 202.71875 41.503906 L 203.496094 41.574219 L 204.269531 41.652344 L 205.046875 41.734375 L 205.816406 41.816406 L 207.363281 41.996094 L 208.132812 42.089844 L 208.902344 42.1875 L 209.671875 42.292969 L 210.4375 42.398438 L 211.207031 42.507812 L 211.972656 42.617188 L 212.738281 42.734375 L 213.5 42.855469 L 214.261719 42.980469 L 215.027344 43.105469 L 215.785156 43.238281 L 216.546875 43.371094 L 217.304688 43.507812 L 218.0625 43.652344 L 218.160156 43.667969 Z M 192.136719 37.5625 L 191.855469 37.554688 L 191.050781 37.535156 L 189.441406 37.511719 L 187.832031 37.503906 L 187.023438 37.507812 L 186.21875 37.511719 L 184.609375 37.535156 L 183.808594 37.554688 L 183.003906 37.574219 L 181.402344 37.628906 L 180.601562 37.660156 L 179 37.738281 L 178.203125 37.78125 L 176.609375 37.882812 L 175.8125 37.9375 L 175.390625 37.96875 L 175.644531 41.277344 L 176.050781 41.25 L 176.832031 41.195312 L 177.613281 41.144531 L 179.175781 41.050781 L 179.960938 41.011719 L 180.746094 40.976562 L 181.527344 40.945312 L 182.3125 40.917969 L 183.101562 40.890625 L 183.886719 40.871094 L 184.675781 40.855469 L 185.460938 40.839844 L 187.039062 40.824219 L 188.621094 40.824219 L 190.199219 40.839844 L 190.988281 40.855469 L 191.773438 40.871094 L 192.058594 40.878906 Z M 165.386719 39.023438 L 164.761719 39.109375 L 163.199219 39.335938 L 161.636719 39.578125 L 160.859375 39.703125 L 159.304688 39.96875 L 158.53125 40.105469 L 157.753906 40.246094 L 156.980469 40.390625 L 156.210938 40.539062 L 155.4375 40.6875 L 154.667969 40.84375 L 153.128906 41.164062 L 151.597656 41.5 L 150.832031 41.671875 L 150.070312 41.847656 L 149.308594 42.027344 L 148.925781 42.121094 L 149.710938 45.347656 L 150.078125 45.257812 L 150.824219 45.082031 L 151.574219 44.90625 L 152.324219 44.738281 L 153.824219 44.410156 L 154.578125 44.25 L 155.332031 44.09375 L 156.839844 43.796875 L 158.355469 43.507812 L 159.113281 43.371094 L 160.636719 43.105469 L 162.160156 42.855469 L 162.925781 42.734375 L 163.6875 42.617188 L 164.453125 42.507812 L 165.222656 42.398438 L 165.847656 42.3125 Z M 139.226562 44.773438 L 138.765625 44.914062 L 137.28125 45.382812 L 136.542969 45.621094 L 135.800781 45.863281 L 135.0625 46.109375 L 133.59375 46.609375 L 132.125 47.125 L 131.394531 47.386719 L 130.664062 47.65625 L 129.9375 47.921875 L 129.210938 48.195312 L 128.484375 48.472656 L 127.761719 48.75 L 127.039062 49.035156 L 126.320312 49.320312 L 125.601562 49.609375 L 124.882812 49.902344 L 124.167969 50.195312 L 123.480469 50.484375 L 124.769531 53.542969 L 125.441406 53.261719 L 126.847656 52.683594 L 127.550781 52.402344 L 128.257812 52.121094 L 128.964844 51.84375 L 129.671875 51.570312 L 130.382812 51.300781 L 131.097656 51.035156 L 131.808594 50.769531 L 132.523438 50.507812 L 133.242188 50.25 L 133.957031 49.996094 L 134.675781 49.746094 L 136.121094 49.253906 L 137.566406 48.777344 L 138.292969 48.542969 L 139.019531 48.3125 L 139.75 48.085938 L 140.207031 47.945312 Z M 114.335938 54.664062 L 114.308594 54.675781 L 113.617188 55.019531 L 112.929688 55.367188 L 112.238281 55.71875 L 111.554688 56.074219 L 110.867188 56.429688 L 110.183594 56.789062 L 109.503906 57.152344 L 108.824219 57.519531 L 108.148438 57.886719 L 107.472656 58.257812 L 106.796875 58.636719 L 106.125 59.011719 L 105.453125 59.394531 L 104.117188 60.167969 L 103.453125 60.558594 L 102.789062 60.953125 L 102.128906 61.347656 L 101.46875 61.75 L 100.8125 62.152344 L 100.15625 62.558594 L 99.707031 62.835938 L 101.476562 65.648438 L 101.910156 65.375 L 102.550781 64.976562 L 103.195312 64.582031 L 104.492188 63.800781 L 105.140625 63.414062 L 105.792969 63.03125 L 106.445312 62.652344 L 107.101562 62.273438 L 107.757812 61.902344 L 108.417969 61.53125 L 109.078125 61.164062 L 109.742188 60.796875 L 111.070312 60.078125 L 111.738281 59.722656 L 112.410156 59.367188 L 113.078125 59.019531 L 113.753906 58.671875 L 114.425781 58.328125 L 115.101562 57.988281 L 115.78125 57.652344 L 115.804688 57.640625 Z M 91.355469 68.433594 L 91.183594 68.554688 L 90.558594 69.003906 L 89.9375 69.457031 L 89.3125 69.914062 L 88.078125 70.835938 L 87.460938 71.300781 L 86.847656 71.769531 L 86.238281 72.238281 L 85.628906 72.710938 L 85.023438 73.1875 L 84.417969 73.667969 L 83.816406 74.148438 L 83.214844 74.632812 L 82.617188 75.121094 L 81.429688 76.105469 L 80.839844 76.601562 L 80.25 77.101562 L 79.664062 77.601562 L 79.078125 78.105469 L 78.496094 78.613281 L 78.230469 78.847656 L 80.429688 81.335938 L 80.683594 81.109375 L 81.253906 80.613281 L 81.828125 80.117188 L 82.402344 79.628906 L 82.976562 79.136719 L 84.140625 78.167969 L 84.722656 77.6875 L 85.894531 76.734375 L 86.488281 76.261719 L 87.078125 75.792969 L 87.671875 75.328125 L 88.269531 74.863281 L 88.867188 74.402344 L 89.46875 73.941406 L 90.074219 73.488281 L 90.675781 73.035156 L 91.894531 72.136719 L 92.503906 71.691406 L 93.117188 71.25 L 93.289062 71.128906 Z M 70.882812 85.714844 L 70.59375 86 L 70.046875 86.546875 L 69.503906 87.097656 L 68.425781 88.207031 L 67.886719 88.765625 L 67.355469 89.324219 L 66.820312 89.890625 L 65.765625 91.023438 L 65.242188 91.597656 L 64.203125 92.746094 L 63.6875 93.324219 L 63.171875 93.90625 L 62.660156 94.492188 L 62.152344 95.078125 L 61.144531 96.257812 L 60.644531 96.851562 L 60.144531 97.449219 L 59.648438 98.050781 L 59.605469 98.105469 L 62.175781 100.199219 L 62.210938 100.15625 L 63.1875 98.984375 L 63.675781 98.402344 L 64.167969 97.824219 L 64.664062 97.246094 L 65.664062 96.097656 L 66.167969 95.527344 L 67.183594 94.394531 L 67.695312 93.832031 L 68.207031 93.273438 L 68.722656 92.714844 L 69.242188 92.160156 L 69.761719 91.609375 L 70.285156 91.058594 L 70.8125 90.511719 L 71.339844 89.96875 L 71.871094 89.425781 L 72.402344 88.886719 L 72.9375 88.347656 L 73.226562 88.0625 Z M 53.464844 106.058594 L 53.457031 106.066406 L 53 106.699219 L 52.09375 107.972656 L 51.648438 108.613281 L 50.757812 109.902344 L 50.320312 110.550781 L 49.882812 111.203125 L 49.015625 112.507812 L 48.589844 113.167969 L 48.164062 113.824219 L 47.320312 115.152344 L 46.492188 116.488281 L 45.671875 117.832031 L 45.269531 118.507812 L 44.867188 119.1875 L 44.46875 119.867188 L 44.328125 120.109375 L 47.203125 121.765625 L 47.335938 121.535156 L 47.726562 120.871094 L 48.515625 119.542969 L 48.914062 118.882812 L 49.316406 118.226562 L 49.722656 117.570312 L 50.542969 116.265625 L 50.957031 115.617188 L 51.792969 114.328125 L 52.214844 113.683594 L 52.640625 113.046875 L 53.5 111.773438 L 53.933594 111.140625 L 54.808594 109.882812 L 55.253906 109.257812 L 55.695312 108.632812 L 56.144531 108.011719 L 56.152344 108.003906 Z M 53.464844 106.058594 " fill-opacity="1" fill-rule="nonzero"/></g></svg>