<svg xmlns="http://www.w3.org/2000/svg" xmlns:xlink="http://www.w3.org/1999/xlink" width="500" zoomAndPan="magnify" viewBox="0 0 375 374.999991" height="500" preserveAspectRatio="xMidYMid meet" version="1.0"><defs><clipPath id="e7495342e3"><path d="M 187.5 0 C 83.945312 0 0 83.945312 0 187.5 C 0 291.054688 83.945312 375 187.5 375 C 291.054688 375 375 291.054688 375 187.5 C 375 83.945312 291.054688 0 187.5 0 Z M 187.5 0 " clip-rule="nonzero"/></clipPath><clipPath id="196d326f5e"><path d="M 141 40.265625 L 261 40.265625 L 261 106 L 141 106 Z M 141 40.265625 " clip-rule="nonzero"/></clipPath><clipPath id="32eb5c418f"><path d="M 52.964844 261 L 152 261 L 152 334.46875 L 52.964844 334.46875 Z M 52.964844 261 " clip-rule="nonzero"/></clipPath><clipPath id="900ea96935"><path d="M 283 85 L 322.652344 85 L 322.652344 219 L 283 219 Z M 283 85 " clip-rule="nonzero"/></clipPath></defs><g clip-path="url(#e7495342e3)"><rect x="-37.5" width="450" fill="#d7b9d6" y="-37.499999" height="449.999989" fill-opacity="1"/></g><path fill="#7c449a" d="M 144.589844 262.445312 C 141.636719 259.492188 140.011719 255.597656 140.011719 251.476562 L 140.011719 153.914062 L 120.953125 165.828125 C 120.273438 166.242188 119.441406 166.28125 118.722656 165.902344 C 118.003906 165.523438 117.589844 164.804688 117.589844 163.972656 L 117.589844 145.859375 C 117.589844 145.332031 117.777344 144.839844 118.117188 144.425781 C 119.402344 142.910156 123.375 138.261719 128.820312 131.71875 C 132.675781 127.105469 136.382812 122.566406 139.976562 118.144531 C 140.203125 117.839844 140.464844 117.539062 140.691406 117.234375 C 140.921875 116.933594 141.183594 116.628906 141.410156 116.328125 C 143.984375 113.113281 146.515625 109.976562 148.898438 106.914062 C 148.972656 106.835938 149.011719 106.761719 149.089844 106.683594 C 149.578125 106.042969 150.070312 105.4375 150.488281 104.832031 C 153.398438 100.863281 155.25 97.195312 156.046875 93.980469 C 156.800781 90.917969 156.574219 88.308594 155.363281 86.191406 C 153.964844 83.730469 151.433594 82.257812 148.898438 81.691406 C 147.6875 81.425781 146.480469 81.351562 145.382812 81.5 C 144.246094 81.652344 142.925781 81.992188 141.375 82.558594 C 141.148438 82.636719 140.882812 82.75 140.65625 82.824219 C 140.429688 82.898438 140.164062 83.011719 139.9375 83.128906 C 135.019531 85.09375 128.441406 88.800781 120.5 94.054688 C 111.765625 99.839844 104.203125 105.589844 102.539062 106.835938 C 102.5 106.875 102.460938 106.875 102.460938 106.914062 L 102.460938 106.875 C 101.894531 107.667969 99.890625 110.808594 92.554688 122.644531 C 89.078125 128.277344 85.75 138.335938 82.722656 152.59375 C 80.265625 164.164062 77.996094 178.457031 75.953125 195.132812 C 72.4375 224.402344 70.734375 251.816406 70.585938 254.84375 C 70.546875 255.296875 70.394531 255.710938 70.132812 256.054688 L 67.785156 259.078125 L 154.269531 308.992188 C 156.121094 307.441406 158.542969 305.816406 161.527344 304.113281 C 165.839844 301.621094 171.324219 299.011719 177.789062 296.289062 C 191.628906 290.464844 207.132812 277.871094 218.96875 266.980469 L 155.554688 266.980469 C 151.433594 266.980469 147.539062 265.355469 144.589844 262.445312 Z M 144.589844 262.445312 " fill-opacity="1" fill-rule="nonzero"/><path fill="#7c449a" d="M 279.773438 75.109375 C 277.882812 72.992188 275.464844 71.972656 272.589844 72.121094 C 269.074219 72.273438 265.519531 74.128906 263.175781 75.640625 C 262.757812 75.90625 262.34375 76.167969 261.964844 76.472656 L 261.964844 99.273438 L 283.441406 84.675781 C 283.632812 81.234375 282.382812 78.023438 279.773438 75.109375 Z M 279.773438 75.109375 " fill-opacity="1" fill-rule="nonzero"/><path fill="#7c449a" d="M 253.605469 227.425781 C 253.378906 227.164062 253.191406 226.859375 253.039062 226.558594 L 253.039062 247.773438 L 148.972656 247.773438 L 148.972656 109.257812 C 146.554688 112.320312 144.058594 115.457031 141.488281 118.636719 L 141.488281 251.441406 C 141.488281 259.191406 147.800781 265.507812 155.554688 265.507812 L 237.535156 265.507812 C 248.957031 262.972656 257.992188 253.933594 260.527344 242.515625 L 260.527344 230.300781 C 260.414062 230.300781 260.339844 230.300781 260.226562 230.300781 C 257.3125 230.339844 255.042969 229.355469 253.605469 227.425781 Z M 212.652344 260.703125 L 189.324219 260.703125 L 189.324219 252.726562 L 212.652344 252.726562 Z M 212.652344 260.703125 " fill-opacity="1" fill-rule="nonzero"/><path fill="#7c449a" d="M 253.003906 212.566406 C 253.910156 210.296875 255.800781 207.160156 258.03125 204.4375 C 258.675781 203.640625 259.542969 202.621094 260.527344 201.636719 L 260.527344 201.523438 L 253.039062 196.988281 L 253.039062 212.566406 Z M 253.003906 212.566406 " fill-opacity="1" fill-rule="nonzero"/><g clip-path="url(#196d326f5e)"><path fill="#7c449a" d="M 148.972656 80.289062 L 148.972656 53.972656 L 253.003906 53.972656 L 253.003906 105.398438 L 260.488281 100.292969 L 260.488281 63.273438 C 257.992188 51.855469 248.957031 42.816406 237.535156 40.28125 L 164.480469 40.28125 C 153.058594 42.816406 144.019531 51.855469 141.488281 63.273438 L 141.488281 81.046875 C 142.886719 80.59375 144.171875 80.253906 145.304688 80.101562 C 146.441406 79.949219 147.726562 80.027344 148.972656 80.289062 Z M 148.972656 80.289062 " fill-opacity="1" fill-rule="nonzero"/></g><path fill="#7c449a" d="M 261.890625 202.320312 C 261.699219 202.507812 261.472656 202.734375 261.246094 202.921875 C 261.019531 203.1875 260.753906 203.414062 260.527344 203.71875 C 260.074219 204.210938 259.621094 204.738281 259.167969 205.304688 C 256.820312 208.21875 254.742188 211.734375 254.097656 213.8125 C 253.871094 214.53125 253.191406 217.066406 253.117188 219.976562 C 253.039062 222.777344 253.605469 225.046875 254.742188 226.519531 C 255.953125 228.144531 257.917969 228.902344 260.488281 228.863281 C 260.714844 228.863281 260.980469 228.828125 261.207031 228.828125 C 261.433594 228.789062 261.699219 228.789062 261.925781 228.75 C 266.3125 228.070312 269.980469 224.929688 272.363281 222.285156 C 275.085938 219.257812 276.75 216.195312 276.976562 215.78125 C 277.089844 215.476562 277.542969 214.003906 277.882812 212 L 261.925781 202.394531 Z M 261.890625 202.320312 " fill-opacity="1" fill-rule="nonzero"/><g clip-path="url(#32eb5c418f)"><path fill="#7c449a" d="M 66.007812 263.3125 L 65.632812 263.957031 L 65.253906 264.5625 L 52.964844 285.886719 L 137.480469 334.707031 L 149.050781 314.628906 L 149.429688 314.023438 L 149.804688 313.378906 L 151.847656 309.824219 L 67.296875 261.042969 Z M 66.007812 263.3125 " fill-opacity="1" fill-rule="nonzero"/></g><path fill="#7c449a" d="M 190.53125 135.613281 C 188.867188 134.140625 186.375 133.382812 183.121094 133.382812 C 180.929688 133.382812 178.808594 133.535156 176.882812 133.875 L 176.277344 133.988281 L 176.277344 159.703125 L 180.929688 159.703125 L 180.929688 149.945312 C 181.53125 150.019531 182.136719 150.019531 182.742188 150.019531 C 186.144531 150.019531 188.980469 148.960938 190.796875 147.109375 C 192.195312 145.671875 192.914062 143.707031 192.914062 141.324219 C 192.914062 139.015625 192.046875 136.976562 190.53125 135.613281 Z M 182.820312 146.011719 C 182.0625 146.011719 181.417969 145.976562 180.929688 145.898438 L 180.929688 137.503906 C 181.457031 137.429688 182.214844 137.390625 183.195312 137.390625 C 184.785156 137.390625 186.109375 137.769531 186.941406 138.449219 C 187.808594 139.128906 188.265625 140.1875 188.265625 141.550781 C 188.265625 144.347656 186.296875 146.011719 182.820312 146.011719 Z M 182.820312 146.011719 " fill-opacity="1" fill-rule="nonzero"/><path fill="#7c449a" d="M 197.90625 151.949219 L 205.582031 151.949219 L 208.230469 159.703125 L 213.183594 159.703125 L 204.257812 133.570312 L 199.417969 133.570312 L 190.496094 159.703125 L 195.335938 159.703125 Z M 199.078125 147.980469 L 201.160156 141.816406 C 201.386719 141.171875 201.574219 140.492188 201.761719 139.847656 C 201.953125 140.492188 202.140625 141.132812 202.367188 141.851562 L 204.484375 147.980469 Z M 199.078125 147.980469 " fill-opacity="1" fill-rule="nonzero"/><path fill="#7c449a" d="M 222.335938 159.703125 L 222.335938 148.660156 L 222.902344 147.675781 L 223.28125 147.035156 L 223.660156 146.390625 L 231.144531 133.535156 L 230.277344 133.535156 L 229.292969 134.253906 L 228.082031 134.253906 L 229.066406 133.535156 L 225.890625 133.535156 L 224.679688 135.878906 L 223.921875 137.316406 L 223.167969 138.753906 L 222.144531 140.71875 C 221.957031 141.097656 221.730469 141.511719 221.539062 141.851562 C 221.125 142.683594 220.707031 143.480469 220.332031 144.3125 C 220.292969 144.347656 220.292969 144.386719 220.253906 144.425781 C 220.21875 144.347656 220.179688 144.273438 220.140625 144.199219 C 219.800781 143.480469 219.460938 142.761719 219.082031 142.003906 C 219.042969 141.929688 219.007812 141.851562 218.96875 141.777344 C 218.855469 141.550781 218.742188 141.324219 218.628906 141.132812 C 218.554688 140.984375 218.476562 140.871094 218.402344 140.71875 L 218.289062 140.492188 L 214.734375 133.496094 L 209.402344 133.496094 L 217.722656 148.621094 L 217.722656 159.625 L 222.335938 159.625 Z M 222.335938 159.703125 " fill-opacity="1" fill-rule="nonzero"/><path fill="#7c449a" d="M 288.320312 139.773438 C 287.261719 135.273438 285.636719 130.925781 283.554688 126.804688 C 283.519531 126.6875 283.441406 126.613281 283.40625 126.5 C 283.101562 125.933594 282.839844 125.367188 282.496094 124.835938 C 282.121094 124.117188 281.703125 123.4375 281.289062 122.757812 C 280.378906 121.28125 279.433594 119.84375 278.453125 118.445312 C 278.074219 117.917969 277.695312 117.425781 277.277344 116.894531 C 276.976562 116.515625 276.675781 116.140625 276.371094 115.761719 C 276.296875 115.648438 276.183594 115.535156 276.105469 115.421875 C 273.421875 112.167969 270.398438 109.21875 267.144531 106.609375 C 266.957031 106.457031 266.765625 106.308594 266.539062 106.15625 C 266.464844 106.117188 266.425781 106.082031 266.351562 106.003906 C 266.199219 105.890625 266.046875 105.777344 265.898438 105.703125 C 264.648438 105.058594 263.136719 105.398438 262.265625 106.535156 C 262.152344 106.683594 262.078125 106.835938 262.003906 106.988281 C 261.699219 107.554688 261.625 108.199219 261.699219 108.804688 C 261.738281 109.066406 261.8125 109.292969 261.925781 109.523438 C 261.964844 109.558594 261.964844 109.597656 262.003906 109.636719 C 262.078125 109.824219 262.191406 109.976562 262.304688 110.125 C 262.457031 110.316406 262.605469 110.46875 262.796875 110.617188 C 264.726562 112.09375 266.539062 113.71875 268.242188 115.382812 C 268.46875 115.609375 268.65625 115.796875 268.882812 116.027344 C 269.113281 116.253906 269.300781 116.441406 269.488281 116.667969 C 274.59375 122.152344 278.488281 128.542969 280.984375 135.539062 C 281.136719 135.953125 281.289062 136.371094 281.402344 136.785156 C 281.550781 137.203125 281.664062 137.617188 281.777344 138.035156 C 283.328125 143.101562 284.125 148.46875 284.125 153.953125 C 284.125 159.246094 283.328125 164.503906 281.855469 169.496094 C 281.589844 170.402344 281.289062 171.308594 280.949219 172.21875 C 280.53125 173.390625 280.078125 174.523438 279.585938 175.621094 C 278.640625 177.816406 277.542969 179.96875 276.296875 182.050781 C 275.3125 183.675781 274.253906 185.265625 273.121094 186.777344 C 272.324219 187.835938 271.457031 188.894531 270.585938 189.914062 C 269.339844 191.3125 268.050781 192.675781 266.652344 193.960938 C 265.558594 194.980469 265.40625 196.644531 266.273438 197.820312 C 266.351562 197.894531 266.425781 198.007812 266.503906 198.082031 C 266.617188 198.195312 266.765625 198.308594 266.878906 198.421875 C 267.257812 198.6875 267.675781 198.878906 268.128906 198.953125 C 268.28125 198.992188 268.46875 198.992188 268.621094 198.992188 C 268.960938 198.992188 269.300781 198.914062 269.640625 198.800781 C 269.980469 198.6875 270.320312 198.460938 270.625 198.195312 C 270.660156 198.160156 270.699219 198.121094 270.773438 198.046875 C 271.003906 197.820312 271.265625 197.589844 271.492188 197.363281 C 274.140625 194.832031 276.523438 192.03125 278.679688 189.046875 C 281.0625 185.71875 283.101562 182.164062 284.765625 178.417969 C 288.207031 170.667969 289.984375 162.386719 289.984375 153.839844 C 289.984375 149.152344 289.417969 144.386719 288.320312 139.773438 Z M 288.320312 139.773438 " fill-opacity="1" fill-rule="nonzero"/><g clip-path="url(#900ea96935)"><path fill="#7c449a" d="M 319.519531 134.402344 C 317.96875 127.976562 315.699219 121.699219 312.710938 115.796875 C 309.800781 109.976562 306.207031 104.492188 302.046875 99.460938 C 297.925781 94.472656 293.199219 89.933594 288.09375 85.964844 C 287.109375 85.207031 285.863281 85.167969 284.84375 85.734375 C 284.539062 85.925781 284.238281 86.152344 284.011719 86.453125 C 283.519531 87.097656 283.328125 87.890625 283.441406 88.648438 C 283.480469 89.027344 283.632812 89.402344 283.820312 89.707031 C 284.011719 90.007812 284.238281 90.3125 284.539062 90.539062 C 304.582031 106.003906 316.113281 129.375 316.113281 154.632812 C 316.113281 177.019531 306.699219 198.652344 290.289062 213.890625 C 289.117188 214.984375 289.039062 216.839844 290.136719 218.011719 C 290.703125 218.617188 291.496094 218.957031 292.292969 218.957031 C 293.011719 218.957031 293.730469 218.691406 294.296875 218.164062 C 298.570312 214.191406 302.425781 209.804688 305.828125 205.078125 C 309.234375 200.3125 312.183594 195.210938 314.5625 189.839844 C 316.984375 184.394531 318.835938 178.683594 320.085938 172.859375 C 321.371094 166.886719 322.015625 160.722656 322.015625 154.558594 C 321.902344 147.867188 321.105469 141.019531 319.519531 134.402344 Z M 319.519531 134.402344 " fill-opacity="1" fill-rule="nonzero"/></g><path fill="#7c449a" d="M 261.246094 169.191406 C 261.511719 168.511719 261.738281 167.792969 261.964844 167.113281 C 262.492188 165.410156 262.949219 163.671875 263.289062 161.894531 C 263.363281 161.554688 263.402344 161.214844 263.476562 160.875 C 263.515625 160.570312 263.589844 160.230469 263.628906 159.929688 C 263.855469 158.265625 264.007812 156.601562 264.042969 154.898438 C 264.042969 154.632812 264.042969 154.40625 264.042969 154.144531 C 264.042969 153.914062 264.042969 153.726562 264.042969 153.5 C 264.042969 153.460938 264.042969 153.425781 264.042969 153.386719 C 264.042969 149.871094 263.628906 146.351562 262.796875 142.949219 C 262.53125 141.929688 262.265625 140.90625 261.925781 139.886719 C 261.699219 139.167969 261.472656 138.488281 261.207031 137.769531 C 260.980469 137.164062 260.753906 136.558594 260.488281 135.953125 C 260.113281 135.046875 259.695312 134.175781 259.242188 133.269531 C 258.222656 131.265625 257.046875 129.296875 255.726562 127.445312 C 255.574219 127.21875 255.421875 127.03125 255.269531 126.804688 C 255.121094 126.613281 254.96875 126.386719 254.816406 126.199219 C 254.210938 125.402344 253.605469 124.648438 252.964844 123.929688 C 251.714844 122.492188 250.355469 121.128906 248.917969 119.84375 C 248.730469 119.695312 248.539062 119.503906 248.351562 119.351562 C 248.160156 119.203125 247.972656 119.050781 247.785156 118.863281 C 247.332031 118.484375 246.914062 118.144531 246.421875 117.765625 C 245.136719 116.78125 243.320312 117.007812 242.300781 118.292969 C 241.316406 119.582031 241.542969 121.394531 242.832031 122.417969 C 242.832031 122.417969 242.832031 122.417969 242.867188 122.453125 C 243.058594 122.605469 243.246094 122.757812 243.472656 122.90625 C 243.664062 123.058594 243.851562 123.210938 244.039062 123.398438 C 246.953125 125.820312 249.410156 128.578125 251.488281 131.605469 C 251.640625 131.832031 251.792969 132.058594 251.945312 132.285156 C 252.09375 132.511719 252.246094 132.777344 252.398438 133.003906 C 252.585938 133.308594 252.777344 133.609375 252.925781 133.910156 C 256.292969 139.773438 258.105469 146.464844 258.105469 153.460938 C 258.105469 153.652344 258.105469 153.878906 258.105469 154.066406 C 258.105469 154.292969 258.105469 154.558594 258.105469 154.785156 C 258.105469 155.011719 258.105469 155.277344 258.070312 155.503906 C 257.84375 159.816406 256.898438 164.050781 255.308594 168.019531 C 254.628906 169.722656 253.835938 171.347656 252.925781 172.9375 C 252.285156 174.070312 251.566406 175.207031 250.769531 176.300781 C 250.203125 177.097656 249.636719 177.851562 248.992188 178.570312 C 248.765625 178.875 248.503906 179.136719 248.238281 179.441406 C 248.011719 179.707031 247.746094 180.007812 247.480469 180.273438 C 246.875 180.914062 246.234375 181.558594 245.589844 182.164062 C 244.417969 183.261719 244.34375 185.113281 245.441406 186.285156 C 245.929688 186.8125 246.613281 187.117188 247.292969 187.191406 C 247.40625 187.191406 247.480469 187.191406 247.59375 187.191406 C 247.746094 187.191406 247.859375 187.191406 248.011719 187.15625 C 248.277344 187.117188 248.503906 187.042969 248.730469 186.964844 C 249.03125 186.851562 249.296875 186.664062 249.5625 186.4375 C 249.710938 186.324219 249.824219 186.171875 249.976562 186.058594 C 250.203125 185.867188 250.394531 185.640625 250.621094 185.453125 C 250.847656 185.226562 251.074219 185 251.261719 184.808594 C 251.832031 184.242188 252.359375 183.636719 252.890625 183.03125 C 255.839844 179.667969 258.222656 175.886719 260.074219 171.765625 C 260.1875 171.5 260.300781 171.273438 260.414062 171.007812 C 260.792969 170.441406 261.019531 169.835938 261.246094 169.191406 Z M 261.246094 169.191406 " fill-opacity="1" fill-rule="nonzero"/></svg>